<?xml version="1.0" encoding="utf-8"?>
<!-- Generator: Adobe Illustrator 23.0.1, SVG Export Plug-In . SVG Version: 6.00 Build 0)  -->
<svg version="1.1" id="Layer_1" xmlns="http://www.w3.org/2000/svg" xmlns:xlink="http://www.w3.org/1999/xlink" x="0px" y="0px"
	 viewBox="0 0 1000 1000" style="enable-background:new 0 0 1000 1000;" xml:space="preserve">
<style type="text/css">
	.st0{fill-rule:evenodd;clip-rule:evenodd;fill:#020202;}
	.st1{fill:#F8991D;}
	.st2{fill-rule:evenodd;clip-rule:evenodd;fill:#F8991D;}
	.st3{fill-rule:evenodd;clip-rule:evenodd;fill:#010101;}
	.st4{fill-rule:evenodd;clip-rule:evenodd;fill:#F89921;}
	.st5{fill:#020202;}
	.st6{fill-rule:evenodd;clip-rule:evenodd;fill:#FFFFFF;}
	.st7{fill:#FFFFFF;}
	.st8{fill:none;stroke:#000000;stroke-width:18;stroke-miterlimit:10;}
	.st9{fill-rule:evenodd;clip-rule:evenodd;}
	.st10{fill-rule:evenodd;clip-rule:evenodd;fill:none;stroke:#000000;stroke-width:18;stroke-miterlimit:10;}
</style>
<path class="st0" d="M0,0h1000v1000H0V0z"/>
<g>
	<g>
		<path class="st7" d="M624.8,610.2c-140.8,67-228.2,10.9-284.1-23.1c-3.5-2.1-9.3,0.5-4.2,6.4c18.6,22.6,79.7,77.1,159.4,77.1
			c79.8,0,127.2-43.5,133.2-51.1C635,611.9,630.8,607.8,624.8,610.2L624.8,610.2z M664.4,588.4c-3.8-4.9-23-5.8-35.1-4.4
			c-12.1,1.4-30.3,8.8-28.7,13.3c0.8,1.7,2.5,0.9,10.8,0.2c8.3-0.8,31.7-3.8,36.6,2.6c4.9,6.4-7.5,36.9-9.7,41.9
			c-2.2,4.9,0.8,6.2,4.9,2.9c4-3.3,11.3-11.8,16.2-23.8C664.3,609,667.3,592.2,664.4,588.4L664.4,588.4z"/>
		<path class="st6" d="M530.2,473.5c0,17.6,0.4,32.2-8.4,47.9c-7.2,12.7-18.5,20.5-31.2,20.5c-17.3,0-27.4-13.2-27.4-32.7
			c0-38.5,34.5-45.4,67.1-45.4V473.5z M575.7,583.5c-3,2.7-7.3,2.9-10.7,1.1c-15-12.4-17.6-18.2-25.9-30.1
			c-24.8,25.3-42.3,32.8-74.4,32.8c-38,0-67.5-23.4-67.5-70.3c0-36.6,19.9-61.6,48.1-73.8c24.5-10.8,58.7-12.7,84.9-15.7v-5.8
			c0-10.7,0.8-23.4-5.5-32.7c-5.5-8.3-16.1-11.7-25.3-11.7c-17.2,0-32.6,8.8-36.3,27.1c-0.8,4.1-3.7,8.1-7.8,8.3l-43.8-4.7
			c-3.7-0.8-7.7-3.8-6.7-9.5c10.1-53.1,58-69.1,100.9-69.1c22,0,50.7,5.8,68,22.5c22,20.5,19.9,47.9,19.9,77.6v70.3
			c0,21.1,8.8,30.4,17,41.8c2.9,4.1,3.6,9-0.1,12c-9.2,7.7-25.6,22-34.6,30L575.7,583.5"/>
		<path class="st1" d="M624.8,610.2c-140.8,67-228.2,10.9-284.1-23.1c-3.5-2.1-9.3,0.5-4.2,6.4c18.6,22.6,79.7,77.1,159.4,77.1
			c79.8,0,127.2-43.5,133.2-51.1C635,611.9,630.8,607.8,624.8,610.2L624.8,610.2z M664.4,588.4c-3.8-4.9-23-5.8-35.1-4.4
			c-12.1,1.4-30.3,8.8-28.7,13.3c0.8,1.7,2.5,0.9,10.8,0.2c8.3-0.8,31.7-3.8,36.6,2.6c4.9,6.4-7.5,36.9-9.7,41.9
			c-2.2,4.9,0.8,6.2,4.9,2.9c4-3.3,11.3-11.8,16.2-23.8C664.3,609,667.3,592.2,664.4,588.4L664.4,588.4z"/>
		<path class="st6" d="M530.2,473.5c0,17.6,0.4,32.2-8.4,47.9c-7.2,12.7-18.5,20.5-31.2,20.5c-17.3,0-27.4-13.2-27.4-32.7
			c0-38.5,34.5-45.4,67.1-45.4V473.5z M575.7,583.5c-3,2.7-7.3,2.9-10.7,1.1c-15-12.4-17.6-18.2-25.9-30.1
			c-24.8,25.3-42.3,32.8-74.4,32.8c-38,0-67.5-23.4-67.5-70.3c0-36.6,19.9-61.6,48.1-73.8c24.5-10.8,58.7-12.7,84.9-15.7v-5.8
			c0-10.7,0.8-23.4-5.5-32.7c-5.5-8.3-16.1-11.7-25.3-11.7c-17.2,0-32.6,8.8-36.3,27.1c-0.8,4.1-3.7,8.1-7.8,8.3l-43.8-4.7
			c-3.7-0.8-7.7-3.8-6.7-9.5c10.1-53.1,58-69.1,100.9-69.1c22,0,50.7,5.8,68,22.5c22,20.5,19.9,47.9,19.9,77.6v70.3
			c0,21.1,8.8,30.4,17,41.8c2.9,4.1,3.6,9-0.1,12c-9.2,7.7-25.6,22-34.6,30L575.7,583.5"/>
	</g>
</g>
</svg>
